name D:\school\WTK\thesis\model\3dpredictsim\Results\MidTarsalJoint\Fal_s1_bCst_PF_Natali2010_ls150_MT_k300_MTP_Mu1_spx10_ig23_PFx10.mot
datacolumns 128
datarows 4
range 1.61496063 1.64725984
endheader
time	pelvis_tilt	pelvis_list	pelvis_rotation	pelvis_tx	pelvis_ty	pelvis_tz	hip_flexion_l	hip_adduction_l	hip_rotation_l	hip_flexion_r	hip_adduction_r	hip_rotation_r	knee_angle_l	knee_angle_r	ankle_angle_l	ankle_angle_r	subtalar_angle_l	subtalar_angle_r	tmt_angle_l	tmt_angle_r	mtp_angle_l	mtp_angle_r	lumbar_extension	lumbar_bending	lumbar_rotation	arm_flex_l	arm_add_l	arm_rot_l	arm_flex_r	arm_add_r	arm_rot_r	elbow_flex_l	elbow_flex_r	pro_sup_l	pro_sup_r	glut_med1_l/activation	glut_med2_l/activation	glut_med3_l/activation	glut_min1_l/activation	glut_min2_l/activation	glut_min3_l/activation	semimem_l/activation	semiten_l/activation	bifemlh_l/activation	bifemsh_l/activation	sar_l/activation	add_long_l/activation	add_brev_l/activation	add_mag1_l/activation	add_mag2_l/activation	add_mag3_l/activation	tfl_l/activation	pect_l/activation	grac_l/activation	glut_max1_l/activation	glut_max2_l/activation	glut_max3_l/activation	iliacus_l/activation	psoas_l/activation	quad_fem_l/activation	gem_l/activation	peri_l/activation	rect_fem_l/activation	vas_med_l/activation	vas_int_l/activation	vas_lat_l/activation	med_gas_l/activation	lat_gas_l/activation	soleus_l/activation	tib_post_l/activation	flex_dig_l/activation	flex_hal_l/activation	tib_ant_l/activation	per_brev_l/activation	per_long_l/activation	per_tert_l/activation	ext_dig_l/activation	ext_hal_l/activation	ercspn_l/activation	intobl_l/activation	extobl_l/activation	glut_med1_r/activation	glut_med2_r/activation	glut_med3_r/activation	glut_min1_r/activation	glut_min2_r/activation	glut_min3_r/activation	semimem_r/activation	semiten_r/activation	bifemlh_r/activation	bifemsh_r/activation	sar_r/activation	add_long_r/activation	add_brev_r/activation	add_mag1_r/activation	add_mag2_r/activation	add_mag3_r/activation	tfl_r/activation	pect_r/activation	grac_r/activation	glut_max1_r/activation	glut_max2_r/activation	glut_max3_r/activation	iliacus_r/activation	psoas_r/activation	quad_fem_r/activation	gem_r/activation	peri_r/activation	rect_fem_r/activation	vas_med_r/activation	vas_int_r/activation	vas_lat_r/activation	med_gas_r/activation	lat_gas_r/activation	soleus_r/activation	tib_post_r/activation	flex_dig_r/activation	flex_hal_r/activation	tib_ant_r/activation	per_brev_r/activation	per_long_r/activation	per_tert_r/activation	ext_dig_r/activation	ext_hal_r/activation	ercspn_r/activation	intobl_r/activation	extobl_r/activation	
          1.61496063	         -2.91432757	          1.25522903	         -4.25218216	          2.01870078	          0.93194705	          0.00117825	         26.34471813	          3.34457842	         -1.00345794	        -15.09555915	         -0.12721737	          6.15057205	        -11.21655916	        -13.44136347	          3.57676991	          4.35320102	         -5.34258525	         10.70448547	         -0.99617059	         -2.03172076	          0.60756157	         11.78082419	         -0.83445324	         -0.09953312	          1.96780526	         -7.49662710	        -13.46119844	          6.98638050	          3.86815817	        -13.47264189	         14.88165858	         16.50147926	         30.31315921	         86.51662706	         86.51662706	          0.24337762	          0.26035851	          0.28588943	          0.27786937	          0.24199673	          0.23672259	          0.08128365	          0.06396573	          0.10043548	          0.06923509	          0.05894886	          0.06989079	          0.14230772	          0.16638539	          0.12771041	          0.17346936	          0.05000316	          0.05896375	          0.09608316	          0.19459336	          0.18039102	          0.18089611	          0.05002152	          0.05000183	          0.23987626	          0.09550401	          0.11401507	          0.05000057	          0.05048660	          0.05601778	          0.05000510	          0.05484109	          0.05897193	          0.05719315	          0.05000155	          0.05000348	          0.05000556	          0.58858432	          0.34610025	          0.20192712	          0.47157040	          0.51867460	          0.24244908	          0.07002071	          0.09675510	          0.07201078	          0.25684757	          0.09073302	          0.05899191	          0.29417650	          0.15267468	          0.08719916	          0.05000959	          0.05000100	          0.05000080	          0.05000113	          0.06955546	          0.07712211	          0.05000199	          0.05000538	          0.05000550	          0.05000456	          0.27949627	          0.05003941	          0.05000325	          0.05000904	          0.05000574	          0.05000400	          0.23634913	          0.58404144	          0.05000136	          0.05000339	          0.05897173	          0.11312472	          0.09068262	          0.08896839	          0.08097916	          0.21154010	          0.25310428	          0.24503458	          0.16516689	          0.26547234	          0.34758127	          0.05000579	          0.19126267	          0.18181440	          0.11247560	          0.05000034	          0.05000093	          0.07014655	          0.05000016	          0.05707073	
          1.62572703	         -2.90510256	          1.31993415	         -4.37188378	          2.03464924	          0.93178800	          0.00096126	         25.86856233	          3.53258624	         -0.76092502	        -14.76708639	         -0.33193000	          6.02531496	        -11.96363108	        -15.54144505	          2.44712973	          3.35048759	         -5.54010965	         11.44820966	         -1.07205508	         -2.74063333	          0.94992075	         13.74414673	         -0.67414283	         -0.33739943	          1.99917031	         -8.14275056	        -13.47141093	          6.90819497	          3.58834885	        -13.48176336	         15.16400266	         16.19163043	         31.14327865	         86.51662706	         86.51662706	          0.32525107	          0.36143673	          0.36458865	          0.23559822	          0.24133543	          0.22832898	          0.06891785	          0.08043654	          0.08515884	          0.05870262	          0.05000128	          0.05925785	          0.12065767	          0.14648405	          0.20306555	          0.20085817	          0.05000202	          0.05000556	          0.08149659	          0.26770876	          0.23463902	          0.22663513	          0.05000031	          0.05000039	          0.20338195	          0.08097493	          0.09667034	          0.05000037	          0.20776704	          0.20972731	          0.17876230	          0.05000010	          0.05000032	          0.05000003	          0.05000031	          0.05000798	          0.05000396	          0.68776357	          0.33775318	          0.19355439	          0.69236014	          0.55440745	          0.22645288	          0.08431007	          0.08203487	          0.06105510	          0.21777122	          0.07692898	          0.05001695	          0.24942232	          0.12944706	          0.07393284	          0.05003758	          0.05000191	          0.05000140	          0.05000082	          0.05897433	          0.16384024	          0.18406198	          0.05000400	          0.05003523	          0.08720513	          0.27140396	          0.05000936	          0.05000254	          0.05000655	          0.05000476	          0.05000432	          0.20039144	          0.54532207	          0.05000040	          0.05000151	          0.05000045	          0.09591423	          0.10513485	          0.10281805	          0.09652984	          0.17935639	          0.21459704	          0.20775501	          0.14014364	          0.22508378	          0.29470067	          0.11443755	          0.16216427	          0.15415327	          0.09537423	          0.08194636	          0.05000052	          0.09102753	          0.05000008	          0.05000020	
          1.63649343	         -2.89571238	          1.38150139	         -4.46092746	          2.05038561	          0.93191403	          0.00071983	         25.44252383	          3.72955269	         -0.52947706	        -14.26535545	         -0.51521977	          5.90707084	        -12.75772052	        -17.85475032	          1.28434032	          2.17279165	         -5.70612527	         12.15368579	         -1.16189159	         -3.29152036	          1.34857133	         15.04036928	         -0.53403071	         -0.57725382	          2.02283754	         -8.70201601	        -13.47573531	          6.86604554	          3.33636641	        -13.48209494	         15.44721977	         15.84868766	         31.85881370	         86.51662706	         86.51662706	          0.39185719	          0.40617937	          0.40621594	          0.19975722	          0.20462262	          0.20236263	          0.05843408	          0.07122731	          0.07325486	          0.05000072	          0.05000145	          0.05024315	          0.12166848	          0.21758589	          0.23948720	          0.21766600	          0.05000219	          0.05001262	          0.06911363	          0.29894935	          0.26565147	          0.25362287	          0.05000043	          0.05000048	          0.17243995	          0.06865669	          0.08196783	          0.05000083	          0.31774092	          0.31700193	          0.26814783	          0.05000024	          0.05000061	          0.05000010	          0.05000047	          0.05000442	          0.05000391	          0.76448411	          0.34627550	          0.19020498	          0.64543942	          0.58335130	          0.19200201	          0.09102998	          0.06955412	          0.05176626	          0.18463970	          0.06522517	          0.05000017	          0.21147585	          0.10975336	          0.06268502	          0.05003164	          0.05000204	          0.05000198	          0.05000077	          0.05000683	          0.18963540	          0.28754947	          0.16192228	          0.05003805	          0.09675201	          0.29129444	          0.07173058	          0.05000343	          0.05000527	          0.05000345	          0.05000302	          0.16990410	          0.49304635	          0.05000039	          0.05000153	          0.05000074	          0.08132234	          0.09476427	          0.09501559	          0.09339586	          0.15206912	          0.18194832	          0.17614717	          0.18125165	          0.19083973	          0.24986508	          0.12906442	          0.13749268	          0.13070044	          0.08086425	          0.18741320	          0.05000274	          0.10824321	          0.05000011	          0.05000024	
          1.64725984	         -2.88620094	          1.43759161	         -4.52187647	          2.06587976	          0.93236104	          0.00046309	         25.00758823	          3.93273213	         -0.29427872	        -13.58641327	         -0.67260956	          5.79325505	        -13.54205762	        -20.37076481	          0.29709685	          0.83635017	         -5.84333490	         12.79639397	         -1.23856522	         -3.59248903	          1.70325508	         15.29793490	         -0.41113815	         -0.81380348	          2.03926741	         -9.17617920	        -13.47459904	          6.83995859	          3.11865004	        -13.47396104	         15.74688785	         15.48970888	         32.45296715	         86.51662706	         86.51662706	          0.44725204	          0.43771664	          0.43278878	          0.20765271	          0.17358292	          0.18927767	          0.05139996	          0.06373979	          0.06640166	          0.05000179	          0.05000253	          0.05000588	          0.10316082	          0.18476028	          0.23676086	          0.23159684	          0.05000215	          0.05002593	          0.05869222	          0.31298836	          0.28317935	          0.26766247	          0.05000067	          0.05000065	          0.14620536	          0.05821335	          0.06950533	          0.05000083	          0.37345762	          0.37601728	          0.30979704	          0.05000036	          0.05000101	          0.05000016	          0.05000090	          0.05000653	          0.05000602	          0.82509995	          0.32568905	          0.18157451	          0.54724608	          0.58990205	          0.16279230	          0.09417461	          0.05897219	          0.05000035	          0.15654876	          0.05530291	          0.05000498	          0.17930231	          0.09305595	          0.05315007	          0.05000982	          0.05000100	          0.05000166	          0.05000040	          0.05000416	          0.18239406	          0.31852926	          0.21009417	          0.09673166	          0.08203775	          0.31563112	          0.06125006	          0.05000455	          0.05003649	          0.05004807	          0.08112509	          0.14405507	          0.43617780	          0.05504335	          0.05003525	          0.05000588	          0.07725974	          0.08202483	          0.08193621	          0.07920061	          0.12893334	          0.15426683	          0.14934814	          0.18803671	          0.16180550	          0.21185071	          0.10942880	          0.11657462	          0.11081572	          0.06856168	          0.28321611	          0.31236187	          0.12281721	          0.05000060	          0.05000020	
